<svg width="38" height="38" viewBox="0 0 38 38" fill="none" xmlns="http://www.w3.org/2000/svg">
<path d="M18.9998 3.16675C10.2598 3.16675 3.1665 10.2601 3.1665 19.0001C3.1665 27.7401 10.2598 34.8334 18.9998 34.8334C27.7398 34.8334 34.8332 27.7401 34.8332 19.0001C34.8332 10.2601 27.7398 3.16675 18.9998 3.16675ZM18.9998 7.91675C21.6282 7.91675 23.7498 10.0384 23.7498 12.6667C23.7498 15.2951 21.6282 17.4167 18.9998 17.4167C16.3715 17.4167 14.2498 15.2951 14.2498 12.6667C14.2498 10.0384 16.3715 7.91675 18.9998 7.91675ZM18.9998 30.4001C17.1186 30.4001 15.2666 29.9346 13.609 29.045C11.9514 28.1554 10.5397 26.8694 9.49984 25.3017C9.54734 22.1509 15.8332 20.4251 18.9998 20.4251C22.1507 20.4251 28.4523 22.1509 28.4998 25.3017C27.4599 26.8694 26.0482 28.1554 24.3906 29.045C22.733 29.9346 20.8811 30.4001 18.9998 30.4001Z" fill="white"/>
</svg>
