<svg width="38" height="38" viewBox="0 0 38 38" fill="none" xmlns="http://www.w3.org/2000/svg">
<path d="M35.1239 18.7403L19.8386 3.46603C19.7285 3.35576 19.5978 3.26827 19.4539 3.20858C19.31 3.14889 19.1557 3.11816 18.9999 3.11816C18.8441 3.11816 18.6898 3.14889 18.5459 3.20858C18.402 3.26827 18.2713 3.35576 18.1612 3.46603L2.87588 18.7403C2.43057 19.1856 2.17822 19.7905 2.17822 20.4213C2.17822 21.7313 3.24326 22.7963 4.55322 22.7963H6.16377V33.6953C6.16377 34.3522 6.69443 34.8828 7.35127 34.8828H16.6249V26.5703H20.7812V34.8828H30.6485C31.3054 34.8828 31.836 34.3522 31.836 33.6953V22.7963H33.4466C34.0774 22.7963 34.6823 22.5477 35.1276 22.0987C36.0517 21.1709 36.0517 19.668 35.1239 18.7403Z" fill="white"/>
</svg>
