<svg width="38" height="38" viewBox="0 0 38 38" fill="none" xmlns="http://www.w3.org/2000/svg">
<path d="M10.2915 33.25H4.74984C3.879 33.25 3.1665 32.5375 3.1665 31.6667V15.8333C3.1665 14.9625 3.879 14.25 4.74984 14.25H10.2915C11.1623 14.25 11.8748 14.9625 11.8748 15.8333V31.6667C11.8748 32.5375 11.1623 33.25 10.2915 33.25ZM21.7707 4.75H16.229C15.3582 4.75 14.6457 5.4625 14.6457 6.33333V31.6667C14.6457 32.5375 15.3582 33.25 16.229 33.25H21.7707C22.6415 33.25 23.354 32.5375 23.354 31.6667V6.33333C23.354 5.4625 22.6415 4.75 21.7707 4.75ZM33.2498 17.4167H27.7082C26.8373 17.4167 26.1248 18.1292 26.1248 19V31.6667C26.1248 32.5375 26.8373 33.25 27.7082 33.25H33.2498C34.1207 33.25 34.8332 32.5375 34.8332 31.6667V19C34.8332 18.1292 34.1207 17.4167 33.2498 17.4167Z" fill="white"/>
</svg>
