<svg width="41" height="38" viewBox="0 0 41 38" fill="none" xmlns="http://www.w3.org/2000/svg">
<path d="M22.081 1.41791C23.208 0.407907 25 1.20691 25 2.72091V35.2789C25 36.7929 23.208 37.5929 22.081 36.5809L13.875 29.2149C13.0033 28.4325 11.8733 27.9998 10.702 27.9999H6C4.60761 27.9999 3.27226 27.4468 2.28769 26.4622C1.30312 25.4777 0.75 24.1423 0.75 22.7499V15.2499C0.75 12.3499 3.1 9.99991 6 9.99991H10.702C11.8733 9.99997 13.0033 9.56727 13.875 8.78491L22.081 1.41791Z" fill="#F8F8F8"/>
<path d="M29.3662 13.366C29.4823 13.2499 29.6201 13.1578 29.7718 13.0949C29.9235 13.0321 30.0861 12.9998 30.2502 12.9998C30.4144 12.9998 30.577 13.0321 30.7287 13.0949C30.8803 13.1578 31.0182 13.2499 31.1342 13.366L35.0002 17.232L38.8662 13.366C38.9823 13.2499 39.1201 13.1578 39.2718 13.095C39.4235 13.0322 39.5861 12.9998 39.7502 12.9998C39.9144 12.9998 40.077 13.0322 40.2286 13.095C40.3803 13.1578 40.5181 13.2499 40.6342 13.366C40.7503 13.4821 40.8424 13.6199 40.9052 13.7716C40.9681 13.9232 41.0004 14.0858 41.0004 14.25C41.0004 14.4142 40.9681 14.5767 40.9052 14.7284C40.8424 14.8801 40.7503 15.0179 40.6342 15.134L36.7682 19L40.6342 22.866C40.8687 23.1004 41.0004 23.4184 41.0004 23.75C41.0004 24.0816 40.8687 24.3995 40.6342 24.634C40.3998 24.8684 40.0818 25.0002 39.7502 25.0002C39.4187 25.0002 39.1007 24.8684 38.8662 24.634L35.0002 20.768L31.1342 24.634C30.8998 24.8684 30.5818 25.0002 30.2502 25.0002C29.9187 25.0002 29.6007 24.8684 29.3662 24.634C29.1318 24.3995 29.0001 24.0816 29.0001 23.75C29.0001 23.4184 29.1318 23.1004 29.3662 22.866L33.2322 19L29.3662 15.134C29.2501 15.0179 29.158 14.8801 29.0952 14.7284C29.0323 14.5767 29 14.4142 29 14.25C29 14.0858 29.0323 13.9232 29.0952 13.7716C29.158 13.6199 29.2501 13.4821 29.3662 13.366V13.366Z" fill="#F8F8F8"/>
</svg>
