<svg width="38" height="38" viewBox="0 0 38 38" fill="none" xmlns="http://www.w3.org/2000/svg">
<path d="M25.3981 20.9508C26.4321 21.8556 27.4015 21.8556 28.3062 20.9508L37.0307 13.4017C37.8709 12.5535 37.8709 11.7053 37.0307 10.857C36.0613 10.0088 35.0919 10.0088 34.1226 10.857L25.3981 3.22311C26.4321 2.43144 26.4321 1.6115 25.3981 0.763288C24.4933 -0.141474 23.5562 -0.141474 22.5868 0.763288L13.8623 8.14275C12.893 8.99097 12.893 9.83918 13.8623 10.6874C14.7671 11.4791 15.7365 11.4791 16.7705 10.6874L19.6787 13.232L13.8623 18.2365C12.893 17.5014 11.9236 17.5014 10.9542 18.2365L0.872549 27.1428C-0.0968392 27.991 -0.0968392 28.8392 0.872549 29.6874L3.4899 32.5713C4.52391 33.4761 5.4933 33.4761 6.39806 32.5713L16.5766 23.6651C16.9644 23.3258 17.1583 22.9158 17.1583 22.4352C17.1583 21.9545 16.9644 21.5445 16.5766 21.2053L22.296 16.116L25.2042 18.6606C24.4287 19.3392 24.4933 20.1026 25.3981 20.9508ZM22.5868 10.857L19.6787 8.3124L22.5868 5.76775L31.2144 13.4017L28.3062 15.9463L25.3981 13.4017L22.5868 10.857Z" fill="white"/>
</svg>
