<svg width="34" height="37" viewBox="0 0 34 37" fill="none" xmlns="http://www.w3.org/2000/svg">
<path d="M23.8807 7.18349C26.1197 8.08907 28.037 9.64316 29.3863 11.6462C30.7357 13.6493 31.4556 16.01 31.4536 18.4252C31.4555 20.8402 30.7356 23.2007 29.3862 25.2037C28.0369 27.2066 26.1196 28.7605 23.8807 29.6659V32.1947C26.7786 31.2404 29.301 29.3953 31.0882 26.9226C32.8754 24.45 33.836 21.4761 33.8331 18.4252C33.8331 12.0023 29.6631 6.55016 23.8807 4.64744V7.18349V7.18349ZM23.8807 13.154C24.6427 13.8047 25.2541 14.6131 25.6728 15.5234C26.0915 16.4337 26.3074 17.4241 26.3055 18.4261C26.3075 19.4279 26.0916 20.4182 25.673 21.3284C25.2543 22.2385 24.6427 23.0468 23.8807 23.6972V26.2704C26.586 24.7042 28.4046 21.7773 28.4046 18.4261C28.4052 16.8366 27.9875 15.2749 27.1934 13.898C26.3993 12.521 25.2568 11.3773 23.8807 10.5818V13.154V13.154ZM3.07122 25.6714H10.3093L18.4522 35.6373C19.3569 36.9402 21.4741 36.8416 22.0712 35.3641V1.5604C21.3375 0.083824 19.4121 -0.0346998 18.4522 1.21478L10.3093 11.2151H3.07122C0.754124 11.2151 0.356934 11.6322 0.356934 13.8968V22.9553C0.356934 25.1647 0.809315 25.6714 3.07122 25.6714Z" fill="#F8F8F8"/>
</svg>
